# xmcd CD database file
#
# Track frame offsets:
#	150
#	24529
#	49061
#	72315
#	91961
#	113856
#	136662
#	138547
#	160430
#	179203
#	198258
#	218376
#	220103
#	243061
#
# Disc length: 3519 seconds
#
# Revision: 0
# Processed by: cddbd v1.5.2PL0 Copyright (c) Steve Scherf et al.
# Submitted via: CDex 1.70beta2
#
DISCID=c70dbd0e
DTITLE=Masahiko Osaka - Funky 7
DYEAR=2010
DGENRE=Jazz
TTITLE0=Moanin'
TTITLE1=F.D.R.
TTITLE2=The Sidewinder
TTITLE3=June, July, August
TTITLE4=Down By The Riverside
TTITLE5=Eater
TTITLE6=Interlude 1
TTITLE7=Peace
TTITLE8=Blue In Green
TTITLE9=Three And One
TTITLE10=Throw Out
TTITLE11=Interlude 2
TTITLE12=U.T.B.
TTITLE13=Mercy, Mercy, Mercy
EXTD=YEAR: 2010
EXTT0=
EXTT1=
EXTT2=
EXTT3=
EXTT4=
EXTT5=
EXTT6=
EXTT7=
EXTT8=
EXTT9=
EXTT10=
EXTT11=
EXTT12=
EXTT13=
PLAYORDER=
